<?xml version="1.0" encoding="UTF-8" standalone="no"?>
<!-- Created with Inkscape (http://www.inkscape.org/) -->

<svg
   xmlns:dc="http://purl.org/dc/elements/1.1/"
   xmlns:cc="http://creativecommons.org/ns#"
   xmlns:rdf="http://www.w3.org/1999/02/22-rdf-syntax-ns#"
   xmlns:svg="http://www.w3.org/2000/svg"
   xmlns="http://www.w3.org/2000/svg"
   xmlns:sodipodi="http://sodipodi.sourceforge.net/DTD/sodipodi-0.dtd"
   xmlns:inkscape="http://www.inkscape.org/namespaces/inkscape"
   width="1598.0625"
   height="481.8887"
   id="svg3955"
   version="1.1"
   inkscape:version="0.48.4 r9939"
   sodipodi:docname="New document 10">
  <defs
     id="defs3957" />
  <sodipodi:namedview
     id="base"
     pagecolor="#ffffff"
     bordercolor="#666666"
     borderopacity="1.0"
     inkscape:pageopacity="0.0"
     inkscape:pageshadow="2"
     inkscape:zoom="0.35"
     inkscape:cx="756.88839"
     inkscape:cy="320.94436"
     inkscape:document-units="px"
     inkscape:current-layer="layer1"
     showgrid="false"
     fit-margin-top="0"
     fit-margin-left="0"
     fit-margin-right="0"
     fit-margin-bottom="0"
     inkscape:window-width="1855"
     inkscape:window-height="1056"
     inkscape:window-x="65"
     inkscape:window-y="24"
     inkscape:window-maximized="1" />
  <metadata
     id="metadata3960">
    <rdf:RDF>
      <cc:Work
         rdf:about="">
        <dc:format>image/svg+xml</dc:format>
        <dc:type
           rdf:resource="http://purl.org/dc/dcmitype/StillImage" />
        <dc:title></dc:title>
      </cc:Work>
    </rdf:RDF>
  </metadata>
  <g
     inkscape:label="Layer 1"
     inkscape:groupmode="layer"
     id="layer1"
     transform="translate(381.88839,-371.41783)">
    <path
       style="fill:#88aa00;fill-opacity:1"
       d="m 956.64291,639.18154 c -25.7375,-0.4765 -51.4878,17.8469 -57.5938,40 -16.4988,59.8597 -72.3995,91.7671 -128.5,100 -28.4847,4.1803 -33.4429,45.4901 -24.3438,74.125 l 469.96879,0 0,-69.1562 c -14.0934,1.1158 -28.0787,2.4413 -42.3125,2.5312 -45.8896,0.2899 -79.6987,-37.9884 -110.125,-68.4062 -28.2714,-28.2635 -53.3959,-64.2443 -92.93749,-76.7813 -4.6416,-1.4716 -9.3901,-2.2242 -14.1562,-2.3125 z"
       id="rect3142"
       inkscape:connector-curvature="0" />
    <path
       style="fill:#de8787;fill-opacity:1"
       d="m 259.58036,484.55656 c -56.61528,-0.14389 -112.16185,20.57889 -144.0625,70.875 C 21.304387,669.61024 31.559877,744.78604 80.705357,853.30654 l 525.093753,0 c -17.4503,-58.7457 -71.26474,-111.3709 -136.875,-84.4062 -70.99915,54.081 -162.17145,53.6365 -246.875,42.2812 -73.46723,-20.4676 -92.81374,-115.6107 -75.875,-180.75 22.70667,-65.1274 107.39506,-71.11731 161.09375,-44.5625 61.23043,29.8932 25.06201,139.8552 -44.03125,123 -60.99888,-26.26 -85.89257,48.161 -20.28125,58.3125 60.61892,5.9323 138.75423,-17.9547 158.84375,-82.25 9.65163,-60.2245 18.11808,-144.29542 -44.03125,-179.43748 -29.87326,-13.24044 -64.21833,-20.85116 -98.1875,-20.9375 z"
       id="rect3144"
       inkscape:connector-curvature="0" />
    <path
       style="fill:#db5555;fill-opacity:1"
       d="m -231.45089,455.02531 c -19.24782,-0.35871 -39.41353,13.64001 -47.65625,30.71875 -13.94948,41.0934 -54.38558,77.37988 -99.84375,72.4375 -1.11421,3.498 -1.65017,7.23578 -2.9375,10.65628 l 0,284.4687 285.624997,0 c 14.08731,-8.888 28.69855,-17.1633 36.71875,-32.0625 15.21147,-32.5664 -5.77454,-69.3539 -31.46875,-89.75 -53.356577,-35.433 -90.022027,-97.2831 -89.031247,-162.0625 -2.07937,-36.76129 -5.05513,-77.56304 -30,-106.71873 -6.47614,-5.21126 -13.87449,-7.54713 -21.40625,-7.6875 z"
       id="rect3140"
       inkscape:connector-curvature="0" />
    <path
       style="fill:#d4aa00;stroke:none"
       d="m 635.61161,371.43156 c -1.5443,0.0162 -3.066,0.049 -4.5937,0.0937 -48.889,1.43185 -69.3932,49.88056 -90.4688,85.15625 -21.07559,35.27569 -20.24599,50.541 -29.625,85.28125 -9.37901,34.74018 -2.77978,100.13578 28.46875,128.93758 31.24855,28.8017 47.26185,51.4077 96.59375,54.1875 49.3319,2.7798 130.4853,1.1486 178.5937,-40.6563 48.1085,-41.805 50.9676,-114.7598 41.75,-167.56253 -9.2175,-52.80276 -43.5009,-72.81 -81.0624,-103.21875 -36.3879,-29.45848 -91.783,-42.72013 -139.6563,-42.21875 z m 33.0625,137.46875 c 14.8398,0.21208 29.6745,5.26855 40.4375,13.21875 28.9321,11.70445 46.6882,54.58108 17.1563,75.37498 -32.2428,16.4947 -78.9508,19.8447 -106.2188,-7.8125 -12.2718,-14.2896 -16.6695,-31.70707 4,-59.99998 10.9807,-15.03061 27.8066,-21.02161 44.625,-20.78125 z"
       id="path3077"
       inkscape:connector-curvature="0" />
  </g>
</svg>
